<svg width="726" height="120" viewBox="0 0 726 120" fill="none" xmlns="http://www.w3.org/2000/svg">
<path d="M378.508 23.496C380.207 23.5307 381.957 23.6173 383.76 23.756C385.563 23.8947 387.365 24.1547 389.168 24.536L388.856 27.864C387.365 27.7947 385.719 27.7427 383.916 27.708C382.113 27.6387 380.38 27.604 378.716 27.604C377.433 27.604 376.324 27.656 375.388 27.76C374.487 27.8293 373.741 28.0373 373.152 28.384C372.563 28.696 372.129 29.2333 371.852 29.996C371.609 30.724 371.488 31.7467 371.488 33.064C371.488 35.04 371.835 36.4267 372.528 37.224C373.256 37.9867 374.417 38.5587 376.012 38.94L383.292 40.76C386.065 41.4187 387.955 42.58 388.96 44.244C390 45.8733 390.52 48.0747 390.52 50.848C390.52 52.928 390.277 54.6093 389.792 55.892C389.341 57.1747 388.631 58.1627 387.66 58.856C386.689 59.5147 385.441 59.9653 383.916 60.208C382.391 60.4853 380.588 60.624 378.508 60.624C377.329 60.624 375.787 60.572 373.88 60.468C372.008 60.364 369.841 60.0867 367.38 59.636L367.692 56.256C369.737 56.3253 371.384 56.3947 372.632 56.464C373.88 56.4987 374.955 56.516 375.856 56.516C376.757 56.516 377.693 56.516 378.664 56.516C380.501 56.516 381.94 56.3773 382.98 56.1C384.055 55.8227 384.8 55.268 385.216 54.436C385.667 53.604 385.892 52.3733 385.892 50.744C385.892 49.3573 385.736 48.2827 385.424 47.52C385.112 46.7573 384.609 46.1853 383.916 45.804C383.257 45.388 382.408 45.0587 381.368 44.816L373.932 42.944C371.332 42.2853 369.495 41.1413 368.42 39.512C367.38 37.8827 366.86 35.6987 366.86 32.96C366.86 30.88 367.085 29.216 367.536 27.968C368.021 26.6853 368.732 25.732 369.668 25.108C370.639 24.4493 371.852 24.016 373.308 23.808C374.764 23.6 376.497 23.496 378.508 23.496ZM404.276 24.068C406.01 24.068 407.743 24.068 409.476 24.068C411.244 24.068 412.978 24.1027 414.676 24.172C416.41 24.2067 418.074 24.276 419.668 24.38L419.46 27.968H405.056C403.982 27.968 403.184 28.2453 402.664 28.8C402.179 29.32 401.936 30.1867 401.936 31.4V52.72C401.936 53.9333 402.179 54.8173 402.664 55.372C403.184 55.9267 403.982 56.204 405.056 56.204H419.46L419.668 59.74C418.074 59.844 416.41 59.9133 414.676 59.948C412.978 59.9827 411.244 60 409.476 60C407.743 60.0347 406.01 60.052 404.276 60.052C402.162 60.052 400.48 59.4973 399.232 58.388C398.019 57.244 397.395 55.7187 397.36 53.812V30.308C397.395 28.3667 398.019 26.8413 399.232 25.732C400.48 24.6227 402.162 24.068 404.276 24.068ZM398.296 39.2H417.432V42.892H398.296V39.2ZM454.382 24.12V58.18C454.382 59.3933 453.793 60 452.614 60H448.142C447.622 60 447.206 59.8787 446.894 59.636C446.582 59.3933 446.322 59.0293 446.114 58.544L433.998 33.116C433.686 32.4227 433.322 31.6427 432.906 30.776C432.49 29.9093 432.178 29.112 431.97 28.384H431.138C431.207 29.1467 431.259 29.9267 431.294 30.724C431.329 31.5213 431.346 32.3187 431.346 33.116V60H426.77V25.94C426.77 24.7267 427.377 24.12 428.59 24.12H432.906C433.426 24.12 433.842 24.2413 434.154 24.484C434.466 24.7267 434.726 25.0907 434.934 25.576L446.686 50.38C447.067 51.108 447.466 51.94 447.882 52.876C448.333 53.7773 448.749 54.6787 449.13 55.58H450.014C449.979 54.644 449.945 53.7253 449.91 52.824C449.875 51.9227 449.858 51.0213 449.858 50.12V24.12H454.382ZM476.278 24.12V60H471.702V24.12H476.278ZM487.874 24.12V28.176H460.158V24.12H487.874ZM498.225 24.12V60H493.649V24.12H498.225ZM534.87 24.12V58.18C534.87 59.3933 534.281 60 533.102 60H528.63C528.11 60 527.694 59.8787 527.382 59.636C527.07 59.3933 526.81 59.0293 526.602 58.544L514.486 33.116C514.174 32.4227 513.81 31.6427 513.394 30.776C512.978 29.9093 512.666 29.112 512.458 28.384H511.626C511.696 29.1467 511.748 29.9267 511.782 30.724C511.817 31.5213 511.834 32.3187 511.834 33.116V60H507.258V25.94C507.258 24.7267 507.865 24.12 509.078 24.12H513.394C513.914 24.12 514.33 24.2413 514.642 24.484C514.954 24.7267 515.214 25.0907 515.422 25.576L527.174 50.38C527.556 51.108 527.954 51.94 528.37 52.876C528.821 53.7773 529.237 54.6787 529.618 55.58H530.502C530.468 54.644 530.433 53.7253 530.398 52.824C530.364 51.9227 530.346 51.0213 530.346 50.12V24.12H534.87ZM550.526 24.068C552.26 24.068 553.993 24.068 555.726 24.068C557.494 24.068 559.228 24.1027 560.926 24.172C562.66 24.2067 564.324 24.276 565.918 24.38L565.71 27.968H551.306C550.232 27.968 549.434 28.2453 548.914 28.8C548.429 29.32 548.186 30.1867 548.186 31.4V52.72C548.186 53.9333 548.429 54.8173 548.914 55.372C549.434 55.9267 550.232 56.204 551.306 56.204H565.71L565.918 59.74C564.324 59.844 562.66 59.9133 560.926 59.948C559.228 59.9827 557.494 60 555.726 60C553.993 60.0347 552.26 60.052 550.526 60.052C548.412 60.052 546.73 59.4973 545.482 58.388C544.269 57.244 543.645 55.7187 543.61 53.812V30.308C543.645 28.3667 544.269 26.8413 545.482 25.732C546.73 24.6227 548.412 24.068 550.526 24.068ZM544.546 39.2H563.682V42.892H544.546V39.2ZM577.44 24.12V52.72C577.44 53.8987 577.717 54.7653 578.272 55.32C578.861 55.8747 579.745 56.152 580.924 56.152H593.872L594.08 59.688C591.827 59.8613 589.521 59.9653 587.164 60C584.841 60.0347 582.519 60.052 580.196 60.052C577.561 60.052 575.689 59.4107 574.58 58.128C573.471 56.8453 572.916 55.2333 572.916 53.292V24.12H577.44ZM385.632 79.968L390.624 80.02L371.54 108.152L366.496 108.1L385.632 79.968ZM390.988 108.1V112H366.496V108.1H390.988ZM390.624 76.12V80.02H366.808V76.12H390.624ZM412.017 76.12C412.433 76.12 412.797 76.2413 413.109 76.484C413.421 76.692 413.629 76.9867 413.733 77.368L425.277 112H420.545L411.237 82.568C411.098 82.0827 410.942 81.5973 410.769 81.112C410.63 80.592 410.492 80.1067 410.353 79.656H408.897C408.758 80.1067 408.62 80.592 408.481 81.112C408.342 81.5973 408.186 82.0827 408.013 82.568L398.705 112H393.973L405.517 77.368C405.621 76.9867 405.829 76.692 406.141 76.484C406.453 76.2413 406.817 76.12 407.233 76.12H412.017ZM418.673 96.816V100.768H400.473V96.816H418.673ZM442.701 75.652C445.474 75.652 447.71 75.964 449.409 76.588C451.107 77.1773 452.338 78.2173 453.101 79.708C453.898 81.1987 454.297 83.296 454.297 86C454.297 87.9413 454.071 89.5707 453.621 90.888C453.17 92.1707 452.459 93.176 451.489 93.904C450.553 94.5973 449.287 95.048 447.693 95.256V95.516C448.282 95.6547 448.854 95.9493 449.409 96.4C449.998 96.816 450.535 97.388 451.021 98.116C451.506 98.8093 451.87 99.6587 452.113 100.664L455.597 112H450.709L447.537 100.768C447.086 99.416 446.479 98.4627 445.717 97.908C444.954 97.3187 443.966 97.024 442.753 97.024C440.638 97.024 438.801 97.024 437.241 97.024C435.681 96.9893 434.381 96.9547 433.341 96.92C432.301 96.8853 431.469 96.868 430.845 96.868L431.001 93.072H442.597C444.365 93.0373 445.751 92.8293 446.757 92.448C447.797 92.0667 448.542 91.3907 448.993 90.42C449.443 89.4147 449.669 88.028 449.669 86.26C449.669 84.492 449.443 83.14 448.993 82.204C448.542 81.2333 447.797 80.5573 446.757 80.176C445.751 79.7947 444.365 79.604 442.597 79.604C439.754 79.604 437.293 79.6213 435.213 79.656C433.167 79.6907 431.781 79.708 431.053 79.708L430.325 76.12C431.642 75.9813 432.873 75.8773 434.017 75.808C435.161 75.7387 436.409 75.704 437.761 75.704C439.147 75.6693 440.794 75.652 442.701 75.652ZM434.849 76.12V112H430.325V76.12H434.849ZM474.845 75.652C477.619 75.652 479.855 75.964 481.553 76.588C483.252 77.1773 484.483 78.2173 485.245 79.708C486.043 81.1987 486.441 83.296 486.441 86C486.441 87.9413 486.216 89.5707 485.765 90.888C485.315 92.1707 484.604 93.176 483.633 93.904C482.697 94.5973 481.432 95.048 479.837 95.256V95.516C480.427 95.6547 480.999 95.9493 481.553 96.4C482.143 96.816 482.68 97.388 483.165 98.116C483.651 98.8093 484.015 99.6587 484.257 100.664L487.741 112H482.853L479.681 100.768C479.231 99.416 478.624 98.4627 477.861 97.908C477.099 97.3187 476.111 97.024 474.897 97.024C472.783 97.024 470.945 97.024 469.385 97.024C467.825 96.9893 466.525 96.9547 465.485 96.92C464.445 96.8853 463.613 96.868 462.989 96.868L463.145 93.072H474.741C476.509 93.0373 477.896 92.8293 478.901 92.448C479.941 92.0667 480.687 91.3907 481.137 90.42C481.588 89.4147 481.813 88.028 481.813 86.26C481.813 84.492 481.588 83.14 481.137 82.204C480.687 81.2333 479.941 80.5573 478.901 80.176C477.896 79.7947 476.509 79.604 474.741 79.604C471.899 79.604 469.437 79.6213 467.357 79.656C465.312 79.6907 463.925 79.708 463.197 79.708L462.469 76.12C463.787 75.9813 465.017 75.8773 466.161 75.808C467.305 75.7387 468.553 75.704 469.905 75.704C471.292 75.6693 472.939 75.652 474.845 75.652ZM466.993 76.12V112H462.469V76.12H466.993ZM516.176 75.496C517.875 75.5307 519.625 75.6173 521.428 75.756C523.231 75.8947 525.033 76.1547 526.836 76.536L526.524 79.864C525.033 79.7947 523.387 79.7427 521.584 79.708C519.781 79.6387 518.048 79.604 516.384 79.604C515.101 79.604 513.992 79.656 513.056 79.76C512.155 79.8293 511.409 80.0373 510.82 80.384C510.231 80.696 509.797 81.2333 509.52 81.996C509.277 82.724 509.156 83.7467 509.156 85.064C509.156 87.04 509.503 88.4267 510.196 89.224C510.924 89.9867 512.085 90.5587 513.68 90.94L520.96 92.76C523.733 93.4187 525.623 94.58 526.628 96.244C527.668 97.8733 528.188 100.075 528.188 102.848C528.188 104.928 527.945 106.609 527.46 107.892C527.009 109.175 526.299 110.163 525.328 110.856C524.357 111.515 523.109 111.965 521.584 112.208C520.059 112.485 518.256 112.624 516.176 112.624C514.997 112.624 513.455 112.572 511.548 112.468C509.676 112.364 507.509 112.087 505.048 111.636L505.36 108.256C507.405 108.325 509.052 108.395 510.3 108.464C511.548 108.499 512.623 108.516 513.524 108.516C514.425 108.516 515.361 108.516 516.332 108.516C518.169 108.516 519.608 108.377 520.648 108.1C521.723 107.823 522.468 107.268 522.884 106.436C523.335 105.604 523.56 104.373 523.56 102.744C523.56 101.357 523.404 100.283 523.092 99.52C522.78 98.7573 522.277 98.1853 521.584 97.804C520.925 97.388 520.076 97.0587 519.036 96.816L511.6 94.944C509 94.2853 507.163 93.1413 506.088 91.512C505.048 89.8827 504.528 87.6987 504.528 84.96C504.528 82.88 504.753 81.216 505.204 79.968C505.689 78.6853 506.4 77.732 507.336 77.108C508.307 76.4493 509.52 76.016 510.976 75.808C512.432 75.6 514.165 75.496 516.176 75.496ZM549.38 76.12C549.796 76.12 550.16 76.2413 550.472 76.484C550.784 76.692 550.992 76.9867 551.096 77.368L562.64 112H557.908L548.6 82.568C548.462 82.0827 548.306 81.5973 548.132 81.112C547.994 80.592 547.855 80.1067 547.716 79.656H546.26C546.122 80.1067 545.983 80.592 545.844 81.112C545.706 81.5973 545.55 82.0827 545.376 82.568L536.068 112H531.336L542.88 77.368C542.984 76.9867 543.192 76.692 543.504 76.484C543.816 76.2413 544.18 76.12 544.596 76.12H549.38ZM556.036 96.816V100.768H537.836V96.816H556.036ZM601.592 76.12C602.84 76.12 603.464 76.7613 603.464 78.044L604.972 112H600.396L599.096 79.916H598.004L589.996 106.384C589.719 107.424 589.06 107.944 588.02 107.944H583.912C582.837 107.944 582.144 107.424 581.832 106.384L573.824 79.916H572.784L571.536 112H566.96L568.364 78.044C568.433 76.7613 569.075 76.12 570.288 76.12H575.488C576.459 76.12 577.1 76.64 577.412 77.68L584.12 99.572C584.397 100.369 584.623 101.167 584.796 101.964C585.004 102.761 585.229 103.576 585.472 104.408H586.408C586.651 103.576 586.876 102.761 587.084 101.964C587.292 101.167 587.517 100.335 587.76 99.468L594.468 77.68C594.745 76.64 595.404 76.12 596.444 76.12H601.592ZM625.614 75.652C628.491 75.652 630.762 75.9813 632.426 76.64C634.124 77.2987 635.338 78.4427 636.066 80.072C636.794 81.6667 637.158 83.9373 637.158 86.884C637.158 89.8307 636.794 92.1187 636.066 93.748C635.372 95.3773 634.211 96.5213 632.582 97.18C630.987 97.804 628.838 98.116 626.134 98.116C624.678 98.116 623.274 98.0813 621.922 98.012C620.604 97.9427 619.391 97.856 618.282 97.752C617.172 97.6133 616.219 97.4747 615.422 97.336C614.659 97.1973 614.122 97.076 613.81 96.972L613.966 94.164C615.803 94.164 617.71 94.164 619.686 94.164C621.662 94.164 623.62 94.164 625.562 94.164C627.295 94.1293 628.664 93.9213 629.67 93.54C630.71 93.124 631.438 92.396 631.854 91.356C632.304 90.2813 632.53 88.7907 632.53 86.884C632.53 84.9427 632.304 83.452 631.854 82.412C631.438 81.372 630.71 80.644 629.67 80.228C628.664 79.812 627.295 79.604 625.562 79.604C622.719 79.604 620.258 79.6213 618.178 79.656C616.132 79.6907 614.746 79.7427 614.018 79.812L613.29 76.12C614.607 75.9813 615.838 75.8773 616.982 75.808C618.126 75.7387 619.374 75.704 620.726 75.704C622.078 75.6693 623.707 75.652 625.614 75.652ZM617.866 76.12V112H613.29V76.12H617.866ZM648.382 76.12V104.72C648.382 105.899 648.659 106.765 649.214 107.32C649.803 107.875 650.687 108.152 651.866 108.152H664.814L665.022 111.688C662.768 111.861 660.463 111.965 658.106 112C655.783 112.035 653.46 112.052 651.138 112.052C648.503 112.052 646.631 111.411 645.522 110.128C644.412 108.845 643.858 107.233 643.858 105.292V76.12H648.382ZM677.276 76.068C679.01 76.068 680.743 76.068 682.476 76.068C684.244 76.068 685.978 76.1027 687.676 76.172C689.41 76.2067 691.074 76.276 692.668 76.38L692.46 79.968H678.056C676.982 79.968 676.184 80.2453 675.664 80.8C675.179 81.32 674.936 82.1867 674.936 83.4V104.72C674.936 105.933 675.179 106.817 675.664 107.372C676.184 107.927 676.982 108.204 678.056 108.204H692.46L692.668 111.74C691.074 111.844 689.41 111.913 687.676 111.948C685.978 111.983 684.244 112 682.476 112C680.743 112.035 679.01 112.052 677.276 112.052C675.162 112.052 673.48 111.497 672.232 110.388C671.019 109.244 670.395 107.719 670.36 105.812V82.308C670.395 80.3667 671.019 78.8413 672.232 77.732C673.48 76.6227 675.162 76.068 677.276 76.068ZM671.296 91.2H690.432V94.892H671.296V91.2ZM709.754 75.496C711.453 75.5307 713.203 75.6173 715.006 75.756C716.809 75.8947 718.611 76.1547 720.414 76.536L720.102 79.864C718.611 79.7947 716.965 79.7427 715.162 79.708C713.359 79.6387 711.626 79.604 709.962 79.604C708.679 79.604 707.57 79.656 706.634 79.76C705.733 79.8293 704.987 80.0373 704.398 80.384C703.809 80.696 703.375 81.2333 703.098 81.996C702.855 82.724 702.734 83.7467 702.734 85.064C702.734 87.04 703.081 88.4267 703.774 89.224C704.502 89.9867 705.663 90.5587 707.258 90.94L714.538 92.76C717.311 93.4187 719.201 94.58 720.206 96.244C721.246 97.8733 721.766 100.075 721.766 102.848C721.766 104.928 721.523 106.609 721.038 107.892C720.587 109.175 719.877 110.163 718.906 110.856C717.935 111.515 716.687 111.965 715.162 112.208C713.637 112.485 711.834 112.624 709.754 112.624C708.575 112.624 707.033 112.572 705.126 112.468C703.254 112.364 701.087 112.087 698.626 111.636L698.938 108.256C700.983 108.325 702.63 108.395 703.878 108.464C705.126 108.499 706.201 108.516 707.102 108.516C708.003 108.516 708.939 108.516 709.91 108.516C711.747 108.516 713.186 108.377 714.226 108.1C715.301 107.823 716.046 107.268 716.462 106.436C716.913 105.604 717.138 104.373 717.138 102.744C717.138 101.357 716.982 100.283 716.67 99.52C716.358 98.7573 715.855 98.1853 715.162 97.804C714.503 97.388 713.654 97.0587 712.614 96.816L705.178 94.944C702.578 94.2853 700.741 93.1413 699.666 91.512C698.626 89.8827 698.106 87.6987 698.106 84.96C698.106 82.88 698.331 81.216 698.782 79.968C699.267 78.6853 699.978 77.732 700.914 77.108C701.885 76.4493 703.098 76.016 704.554 75.808C706.01 75.6 707.743 75.496 709.754 75.496Z" fill="#003047"/>
<path d="M273.072 22.296C277.595 22.296 282.203 22.3387 286.896 22.424C291.675 22.424 296.325 22.552 300.848 22.808C305.456 22.9787 309.723 23.2774 313.648 23.704L312.624 37.784H280.624C278.32 37.784 276.571 38.3387 275.376 39.448C274.181 40.5574 273.584 42.1787 273.584 44.312V111H254V40.344C254 34.8827 255.749 30.5307 259.248 27.288C262.747 23.96 267.355 22.296 273.072 22.296ZM256.304 59.672H307.888V73.496H256.304V59.672Z" fill="#003047"/>
<path d="M209.92 21.4C218.197 21.4 224.683 22.2534 229.376 23.96C234.069 25.6667 237.397 28.6107 239.36 32.792C241.408 36.9734 242.432 42.8187 242.432 50.328C242.432 57.8374 241.451 63.6827 239.488 67.864C237.611 72.0454 234.496 74.9894 230.144 76.696C225.792 78.3174 219.904 79.128 212.48 79.128C208.555 79.128 204.715 78.9574 200.96 78.616C197.205 78.2747 193.707 77.848 190.464 77.336C187.221 76.824 184.448 76.312 182.144 75.8C179.84 75.2027 178.261 74.648 177.408 74.136L177.792 64.408C182.827 64.408 188.032 64.408 193.408 64.408C198.869 64.408 204.245 64.408 209.536 64.408C212.949 64.3227 215.595 63.896 217.472 63.128C219.435 62.36 220.8 60.952 221.568 58.904C222.421 56.856 222.848 53.9974 222.848 50.328C222.848 46.5734 222.421 43.672 221.568 41.624C220.8 39.576 219.435 38.168 217.472 37.4C215.595 36.5467 212.949 36.12 209.536 36.12C201.685 36.12 194.944 36.1627 189.312 36.248C183.68 36.3334 179.883 36.504 177.92 36.76L176 22.68C179.584 22.2534 182.955 21.9547 186.112 21.784C189.269 21.6134 192.683 21.528 196.352 21.528C200.107 21.4427 204.629 21.4 209.92 21.4ZM195.584 22.68V111H176V22.68H195.584Z" fill="#003047"/>
<path d="M72 49.4463V89.3574C72 92.2282 73.5383 94.879 76.0309 96.3033L111.008 116.29C112.341 117.052 114 116.089 114 114.554V74.6425C114 71.7717 112.462 69.1209 109.969 67.6966L74.9923 47.7098C73.659 46.9479 72 47.9107 72 49.4463Z" fill="#00AE9D"/>
<path d="M126.031 67.6966L161.008 47.7098C162.341 46.9479 164 47.9107 164 49.4463V89.3574C164 92.2282 162.462 94.879 159.969 96.3033L124.992 116.29C123.659 117.052 122 116.089 122 114.554V74.6425C122 71.7717 123.538 69.1209 126.031 67.6966Z" fill="#FBAB18"/>
<path d="M114.031 18.268L79.039 38.2635C77.6953 39.0313 77.6953 40.9687 79.039 41.7365L114.031 61.7319C116.49 63.1373 119.51 63.1373 121.969 61.7319L156.961 41.7365C158.305 40.9687 158.305 39.0313 156.961 38.2635L121.969 18.268C119.51 16.8626 116.49 16.8626 114.031 18.268Z" fill="#009BDB"/>
<path d="M108 24V26L80.3487 42.4842L75.9981 40C71 37 68 30.5424 68 24C68 12.9543 76.9543 4 88 4C99.0457 4 108 12.9543 108 24Z" fill="#009BDB"/>
<circle cx="114" cy="26" r="16" fill="#009BDB"/>
<circle cx="134" cy="30" r="10" fill="#009BDB"/>
<path d="M18.816 22.296C23.5947 22.296 28.416 22.3387 33.28 22.424C38.144 22.424 42.9227 22.5094 47.616 22.68C52.3093 22.8507 56.704 23.1494 60.8 23.576L59.904 37.784H25.984C23.8507 37.784 22.2293 38.3387 21.12 39.448C20.096 40.5574 19.584 42.1787 19.584 44.312V89.368C19.584 91.5014 20.096 93.1227 21.12 94.232C22.2293 95.3414 23.8507 95.896 25.984 95.896H59.904L60.8 110.104C56.704 110.445 52.3093 110.744 47.616 111C42.9227 111.171 38.144 111.256 33.28 111.256C28.416 111.341 23.5947 111.384 18.816 111.384C13.184 111.384 8.61867 109.763 5.12 106.52C1.70667 103.192 0 98.8827 0 93.592V40.088C0 34.712 1.70667 30.4027 5.12 27.16C8.61867 23.9174 13.184 22.296 18.816 22.296ZM2.304 58.136H55.168V71.96H2.304V58.136Z" fill="#003047"/>
</svg>
