<svg width="566" height="126" viewBox="0 0 566 126" fill="none" xmlns="http://www.w3.org/2000/svg">
<path d="M381.368 76.12V112H376.792V76.12H381.368ZM392.964 76.12V80.176H365.248V76.12H392.964ZM410.872 75.444C413.472 75.444 415.673 75.756 417.476 76.38C419.313 77.004 420.769 78.044 421.844 79.5C422.953 80.9213 423.751 82.828 424.236 85.22C424.756 87.612 425.016 90.5587 425.016 94.06C425.016 97.5613 424.756 100.508 424.236 102.9C423.751 105.292 422.953 107.216 421.844 108.672C420.769 110.093 419.313 111.116 417.476 111.74C415.673 112.364 413.472 112.676 410.872 112.676C408.272 112.676 406.053 112.364 404.216 111.74C402.413 111.116 400.957 110.093 399.848 108.672C398.739 107.216 397.924 105.292 397.404 102.9C396.919 100.508 396.676 97.5613 396.676 94.06C396.676 90.5587 396.919 87.612 397.404 85.22C397.924 82.828 398.739 80.9213 399.848 79.5C400.957 78.044 402.413 77.004 404.216 76.38C406.053 75.756 408.272 75.444 410.872 75.444ZM410.872 79.552C408.515 79.552 406.643 80.0027 405.256 80.904C403.904 81.8053 402.933 83.3133 402.344 85.428C401.789 87.508 401.512 90.3853 401.512 94.06C401.512 97.7 401.789 100.577 402.344 102.692C402.933 104.807 403.904 106.315 405.256 107.216C406.643 108.117 408.515 108.568 410.872 108.568C413.229 108.568 415.084 108.117 416.436 107.216C417.823 106.315 418.793 104.807 419.348 102.692C419.937 100.577 420.232 97.7 420.232 94.06C420.232 90.3853 419.937 87.508 419.348 85.428C418.793 83.3133 417.823 81.8053 416.436 80.904C415.084 80.0027 413.229 79.552 410.872 79.552ZM445.606 75.444C448.206 75.444 450.408 75.756 452.21 76.38C454.048 77.004 455.504 78.044 456.578 79.5C457.688 80.9213 458.485 82.828 458.97 85.22C459.49 87.612 459.75 90.5587 459.75 94.06C459.75 97.5613 459.49 100.508 458.97 102.9C458.485 105.292 457.688 107.216 456.578 108.672C455.504 110.093 454.048 111.116 452.21 111.74C450.408 112.364 448.206 112.676 445.606 112.676C443.006 112.676 440.788 112.364 438.95 111.74C437.148 111.116 435.692 110.093 434.582 108.672C433.473 107.216 432.658 105.292 432.138 102.9C431.653 100.508 431.41 97.5613 431.41 94.06C431.41 90.5587 431.653 87.612 432.138 85.22C432.658 82.828 433.473 80.9213 434.582 79.5C435.692 78.044 437.148 77.004 438.95 76.38C440.788 75.756 443.006 75.444 445.606 75.444ZM445.606 79.552C443.249 79.552 441.377 80.0027 439.99 80.904C438.638 81.8053 437.668 83.3133 437.078 85.428C436.524 87.508 436.246 90.3853 436.246 94.06C436.246 97.7 436.524 100.577 437.078 102.692C437.668 104.807 438.638 106.315 439.99 107.216C441.377 108.117 443.249 108.568 445.606 108.568C447.964 108.568 449.818 108.117 451.17 107.216C452.557 106.315 453.528 104.807 454.082 102.692C454.672 100.577 454.966 97.7 454.966 94.06C454.966 90.3853 454.672 87.508 454.082 85.428C453.528 83.3133 452.557 81.8053 451.17 80.904C449.818 80.0027 447.964 79.552 445.606 79.552ZM471.917 76.12V104.72C471.917 105.899 472.194 106.765 472.749 107.32C473.338 107.875 474.222 108.152 475.401 108.152H488.349L488.557 111.688C486.303 111.861 483.998 111.965 481.641 112C479.318 112.035 476.995 112.052 474.673 112.052C472.038 112.052 470.166 111.411 469.057 110.128C467.947 108.845 467.393 107.233 467.393 105.292V76.12H471.917ZM518.7 76.12L508.248 90.992C507.936 91.4427 507.624 91.8413 507.312 92.188C507.034 92.5 506.688 92.864 506.272 93.28V93.384C506.722 93.8 507.138 94.216 507.52 94.632C507.901 95.048 508.23 95.464 508.508 95.88L519.428 112H514.28L501.54 93.228L513.708 76.12H518.7ZM498.732 76.12V87.352C498.732 88.392 498.68 89.38 498.576 90.316C498.472 91.252 498.316 92.2227 498.108 93.228C498.281 94.1987 498.42 95.1693 498.524 96.14C498.662 97.1107 498.732 98.0467 498.732 98.948V112H494.208V76.12H498.732ZM504.036 91.46V95.152H497.12V91.46H504.036ZM529.506 76.12V112H524.93V76.12H529.506ZM551.384 76.12V112H546.808V76.12H551.384ZM562.98 76.12V80.176H535.264V76.12H562.98Z" fill="#003047"/>
<path d="M273.072 22.296C277.595 22.296 282.203 22.3387 286.896 22.424C291.675 22.424 296.325 22.552 300.848 22.808C305.456 22.9787 309.723 23.2774 313.648 23.704L312.624 37.784H280.624C278.32 37.784 276.571 38.3387 275.376 39.448C274.181 40.5574 273.584 42.1787 273.584 44.312V111H254V40.344C254 34.8827 255.749 30.5307 259.248 27.288C262.747 23.96 267.355 22.296 273.072 22.296ZM256.304 59.672H307.888V73.496H256.304V59.672Z" fill="#003047"/>
<path d="M209.92 21.4C218.197 21.4 224.683 22.2534 229.376 23.96C234.069 25.6667 237.397 28.6107 239.36 32.792C241.408 36.9734 242.432 42.8187 242.432 50.328C242.432 57.8374 241.451 63.6827 239.488 67.864C237.611 72.0454 234.496 74.9894 230.144 76.696C225.792 78.3174 219.904 79.128 212.48 79.128C208.555 79.128 204.715 78.9574 200.96 78.616C197.205 78.2747 193.707 77.848 190.464 77.336C187.221 76.824 184.448 76.312 182.144 75.8C179.84 75.2027 178.261 74.648 177.408 74.136L177.792 64.408C182.827 64.408 188.032 64.408 193.408 64.408C198.869 64.408 204.245 64.408 209.536 64.408C212.949 64.3227 215.595 63.896 217.472 63.128C219.435 62.36 220.8 60.952 221.568 58.904C222.421 56.856 222.848 53.9974 222.848 50.328C222.848 46.5734 222.421 43.672 221.568 41.624C220.8 39.576 219.435 38.168 217.472 37.4C215.595 36.5467 212.949 36.12 209.536 36.12C201.685 36.12 194.944 36.1627 189.312 36.248C183.68 36.3334 179.883 36.504 177.92 36.76L176 22.68C179.584 22.2534 182.955 21.9547 186.112 21.784C189.269 21.6134 192.683 21.528 196.352 21.528C200.107 21.4427 204.629 21.4 209.92 21.4ZM195.584 22.68V111H176V22.68H195.584Z" fill="#003047"/>
<path d="M72 49.4463V89.3574C72 92.2282 73.5383 94.879 76.0309 96.3033L111.008 116.29C112.341 117.052 114 116.089 114 114.554V74.6425C114 71.7717 112.462 69.1209 109.969 67.6966L74.9923 47.7098C73.659 46.9479 72 47.9107 72 49.4463Z" fill="#00AE9D"/>
<path d="M126.031 67.6966L161.008 47.7098C162.341 46.9479 164 47.9107 164 49.4463V89.3574C164 92.2282 162.462 94.879 159.969 96.3033L124.992 116.29C123.659 117.052 122 116.089 122 114.554V74.6425C122 71.7717 123.538 69.1209 126.031 67.6966Z" fill="#FBAB18"/>
<path d="M114.031 18.268L79.039 38.2635C77.6953 39.0313 77.6953 40.9687 79.039 41.7365L114.031 61.7319C116.49 63.1373 119.51 63.1373 121.969 61.7319L156.961 41.7365C158.305 40.9687 158.305 39.0313 156.961 38.2635L121.969 18.268C119.51 16.8626 116.49 16.8626 114.031 18.268Z" fill="#009BDB"/>
<path d="M108 24V26L80.3487 42.4842L75.9981 40C71 37 68 30.5424 68 24C68 12.9543 76.9543 4 88 4C99.0457 4 108 12.9543 108 24Z" fill="#009BDB"/>
<circle cx="114" cy="26" r="16" fill="#009BDB"/>
<circle cx="134" cy="30" r="10" fill="#009BDB"/>
<path d="M18.816 22.296C23.5947 22.296 28.416 22.3387 33.28 22.424C38.144 22.424 42.9227 22.5094 47.616 22.68C52.3093 22.8507 56.704 23.1494 60.8 23.576L59.904 37.784H25.984C23.8507 37.784 22.2293 38.3387 21.12 39.448C20.096 40.5574 19.584 42.1787 19.584 44.312V89.368C19.584 91.5014 20.096 93.1227 21.12 94.232C22.2293 95.3414 23.8507 95.896 25.984 95.896H59.904L60.8 110.104C56.704 110.445 52.3093 110.744 47.616 111C42.9227 111.171 38.144 111.256 33.28 111.256C28.416 111.341 23.5947 111.384 18.816 111.384C13.184 111.384 8.61867 109.763 5.12 106.52C1.70667 103.192 0 98.8827 0 93.592V40.088C0 34.712 1.70667 30.4027 5.12 27.16C8.61867 23.9174 13.184 22.296 18.816 22.296ZM2.304 58.136H55.168V71.96H2.304V58.136Z" fill="#003047"/>
</svg>
